<?xml version="1.0" encoding="utf-8"?>
<!-- Generator: Adobe Illustrator 19.1.0, SVG Export Plug-In . SVG Version: 6.00 Build 0)  -->
<svg version="1.1" id="Layer_1" xmlns="http://www.w3.org/2000/svg" xmlns:xlink="http://www.w3.org/1999/xlink" x="0px" y="0px"
	 viewBox="-41 164.9 512 512" style="enable-background:new -41 164.9 512 512;" xml:space="preserve">
<style type="text/css">
	.st0{fill:#FFFFFF;}
</style>
<g>
	<g>
		<path class="st0" d="M447.7,164.9H261.5c-12.9,0-23.3,10.4-23.3,23.3c0,12.9,10.4,23.3,23.3,23.3h130L152,451
			c-9.1,9.1-9.1,23.8,0,32.9c4.5,4.5,10.5,6.8,16.5,6.8c6,0,11.9-2.3,16.5-6.8l239.5-239.5v130c0,12.9,10.4,23.3,23.3,23.3
			s23.3-10.4,23.3-23.3V188.2C471,175.3,460.6,164.9,447.7,164.9z"/>
	</g>
</g>
<g>
	<g>
		<path class="st0" d="M354.6,397.6c-12.9,0-23.3,10.4-23.3,23.3v209.5H5.5V304.5H215c12.9,0,23.3-10.4,23.3-23.3
			c0-12.9-10.4-23.3-23.3-23.3H-17.7c-12.9,0-23.3,10.4-23.3,23.3v372.4c0,12.9,10.4,23.3,23.3,23.3h372.4
			c12.9,0,23.3-10.4,23.3-23.3V420.9C377.9,408,367.5,397.6,354.6,397.6z"/>
	</g>
</g>
</svg>
