<?xml version="1.0" encoding="UTF-8" standalone="no"?>
<!-- Generator: Adobe Illustrator 19.0.0, SVG Export Plug-In . SVG Version: 6.00 Build 0)  -->

<svg
   xmlns:dc="http://purl.org/dc/elements/1.1/"
   xmlns:cc="http://creativecommons.org/ns#"
   xmlns:rdf="http://www.w3.org/1999/02/22-rdf-syntax-ns#"
   xmlns:svg="http://www.w3.org/2000/svg"
   xmlns="http://www.w3.org/2000/svg"
   xmlns:sodipodi="http://sodipodi.sourceforge.net/DTD/sodipodi-0.dtd"
   xmlns:inkscape="http://www.inkscape.org/namespaces/inkscape"
   version="1.1"
   id="Capa_1"
   x="0px"
   y="0px"
   viewBox="0 0 50 50"
   style="enable-background:new 0 0 50 50;"
   xml:space="preserve"
   sodipodi:docname="like_empty.svg"
   inkscape:version="0.92.3 (2405546, 2018-03-11)"><metadata
   id="metadata39"><rdf:RDF><cc:Work
       rdf:about=""><dc:format>image/svg+xml</dc:format><dc:type
         rdf:resource="http://purl.org/dc/dcmitype/StillImage" /><dc:title></dc:title></cc:Work></rdf:RDF></metadata><defs
   id="defs37" /><sodipodi:namedview
   pagecolor="#ffffff"
   bordercolor="#666666"
   borderopacity="1"
   objecttolerance="10"
   gridtolerance="10"
   guidetolerance="10"
   inkscape:pageopacity="0"
   inkscape:pageshadow="2"
   inkscape:window-width="1920"
   inkscape:window-height="1017"
   id="namedview35"
   showgrid="false"
   inkscape:zoom="13.350176"
   inkscape:cx="20.070545"
   inkscape:cy="28.696002"
   inkscape:window-x="-8"
   inkscape:window-y="-7"
   inkscape:window-maximized="1"
   inkscape:current-layer="Capa_1" />
<path
   style="fill:#D75A4A;"
   d="M 13.158203 2 C 5.9352031 2 0.73407812 8.1789687 0.080078125 15.542969 C 0.080078125 15.542969 -0.27309375 17.371109 0.50390625 20.662109 C 1.5619062 25.144109 4.0493438 29.126062 7.4023438 32.164062 L 24.849609 48 L 42.597656 32.166016 C 45.950656 29.127016 48.436141 25.144109 49.494141 20.662109 C 50.271141 17.371109 49.919922 15.544922 49.919922 15.544922 C 49.265922 8.1809219 44.062844 2.0019531 36.839844 2.0019531 C 31.477844 2.0019531 26.867609 5.3439531 24.849609 10.126953 C 22.831609 5.3439531 18.521203 2 13.158203 2 z M 15.464844 6.4785156 C 19.783357 6.4785156 23.253928 9.1719639 24.878906 13.023438 C 26.503885 9.1719639 30.215494 6.4804687 34.533203 6.4804688 C 40.349467 6.4804688 44.539777 11.454963 45.066406 17.384766 C 45.066406 17.384766 45.350282 18.85776 44.724609 21.507812 C 43.872663 25.116907 41.869899 28.3224 39.169922 30.769531 L 24.878906 43.521484 L 10.830078 30.769531 C 8.1301007 28.323205 6.1273368 25.116907 5.2753906 21.507812 C 4.6497175 18.857761 4.9335937 17.384766 4.9335938 17.384766 C 5.4602221 11.454963 9.6485792 6.4785156 15.464844 6.4785156 z "
   id="path2" />
<g
   id="g4">
</g>
<g
   id="g6">
</g>
<g
   id="g8">
</g>
<g
   id="g10">
</g>
<g
   id="g12">
</g>
<g
   id="g14">
</g>
<g
   id="g16">
</g>
<g
   id="g18">
</g>
<g
   id="g20">
</g>
<g
   id="g22">
</g>
<g
   id="g24">
</g>
<g
   id="g26">
</g>
<g
   id="g28">
</g>
<g
   id="g30">
</g>
<g
   id="g32">
</g>
</svg>