<?xml version="1.0" encoding="utf-8"?>
<!-- Generator: Adobe Illustrator 19.1.0, SVG Export Plug-In . SVG Version: 6.00 Build 0)  -->
<svg version="1.1" id="Capa_1" xmlns="http://www.w3.org/2000/svg" xmlns:xlink="http://www.w3.org/1999/xlink" x="0px" y="0px"
	 viewBox="-41 164.9 512 512" style="enable-background:new -41 164.9 512 512;" xml:space="preserve">
<style type="text/css">
	.st0{fill:#FFFFFF;}
</style>
<g>
	<g>
		<path class="st0" d="M-41,536.3v140.6H99.6l281.2-281.2L240.2,255.1L-41,536.3z M81.7,633.6L81.7,633.6l-36.2,0v-43.3H2.3v-36.2
			L33,523.5l79.4,79.4L81.7,633.6z M251,312.6c5,0,7.4,2.5,7.4,7.4c0,2.3-0.8,4.2-2.4,5.7L72.9,508.9c-1.6,1.6-3.5,2.4-5.7,2.4
			c-5,0-7.4-2.5-7.4-7.4c0-2.3,0.8-4.2,2.4-5.7l183.2-183.2C246.8,313.4,248.7,312.6,251,312.6z"/>
		<path class="st0" d="M458.5,256.8l-79.4-79.1c-8.6-8.6-18.8-12.8-30.8-12.8c-12.2,0-22.3,4.3-30.4,12.8l-56.1,55.8l140.6,140.6
			l56.1-56.1c8.3-8.3,12.5-18.5,12.5-30.4C471,275.9,466.8,265.6,458.5,256.8z"/>
	</g>
</g>
</svg>
