<?xml version="1.0" encoding="utf-8"?>
<!-- Generator: Adobe Illustrator 19.1.0, SVG Export Plug-In . SVG Version: 6.00 Build 0)  -->
<svg version="1.1" id="Layer_1" xmlns="http://www.w3.org/2000/svg" xmlns:xlink="http://www.w3.org/1999/xlink" x="0px" y="0px"
	 viewBox="-52 176.5 489.4 489.4" style="enable-background:new -52 176.5 489.4 489.4;" xml:space="preserve">
<style type="text/css">
	.st0{fill:#FFFFFF;}
</style>
<g>
	<g>
		<circle id="XMLID_496_" class="st0" cx="88.8" cy="418.8" r="27.7"/>
		<circle id="XMLID_495_" class="st0" cx="192.7" cy="418.8" r="27.7"/>
		<circle id="XMLID_491_" class="st0" cx="296.6" cy="418.8" r="27.7"/>
		<path class="st0" d="M-15.2,595.8c20.3,0,36.8-16.5,36.8-36.8c0-16.9-11.5-31.2-27.1-35.4v-27.9H80v27.6
			c-16.1,3.9-28.1,18.4-28.1,35.7c0,20.3,16.5,36.8,36.8,36.8s36.8-16.5,36.8-36.8c0-17-11.7-31.4-27.4-35.5v-69.1
			c15.7-4.2,27.4-18.5,27.4-35.5s-11.7-31.4-27.4-35.5v-24h85.5v23.8c-15.9,4.1-27.7,18.5-27.7,35.6c0,20.3,16.5,36.8,36.8,36.8
			s36.8-16.5,36.8-36.8c0-17.2-11.8-31.6-27.7-35.6v-24h85.5v24c-15.7,4.2-27.4,18.5-27.4,35.5s11.7,31.4,27.4,35.5v23.2h-94.6
			c-5,0-9.1,4.1-9.1,9.1v36.8c-15.9,4.1-27.7,18.5-27.7,35.6c0,20.3,16.5,36.8,36.8,36.8s36.8-16.5,36.8-36.8
			c0-17.2-11.8-31.6-27.7-35.6v-27.7h85.5v27.8c-15.7,4.2-27.4,18.5-27.4,35.5c0,20.3,16.5,36.8,36.8,36.8s36.8-16.5,36.8-36.8
			c0-17.3-12-31.8-28.1-35.7v-27.6h85.5v27.9c-15.6,4.3-27.1,18.5-27.1,35.4c0,20.3,16.5,36.8,36.8,36.8s36.8-16.5,36.8-36.8
			c0-17.4-12.1-32-28.4-35.8v-36.6c0-5-4.1-9.1-9.1-9.1h-94.5v-23.1c16.1-3.9,28.1-18.4,28.1-35.7c0-17.3-12-31.8-28.1-35.7v-32.7
			c0-5-4.1-9.1-9.1-9.1h-94.5V319c15.9-4.1,27.7-18.5,27.7-35.6c0-20.3-16.5-36.8-36.8-36.8s-36.8,16.5-36.8,36.8
			c0,17.2,11.8,31.6,27.7,35.6v22.1H89.1c-5,0-9.1,4.1-9.1,9.1v32.9c-16.1,3.9-28.1,18.4-28.1,35.7c0,17.3,12,31.8,28.1,35.7v23.1
			h-94.5c-5,0-9.1,4.1-9.1,9.1v36.5C-39.8,527-52,541.6-52,559C-52,579.3-35.5,595.8-15.2,595.8z M211.4,418.8
			c0,10.3-8.4,18.7-18.7,18.7s-18.7-8.4-18.7-18.7c0-10.3,8.4-18.7,18.7-18.7S211.4,408.5,211.4,418.8z M211.4,559
			c0,10.3-8.4,18.7-18.7,18.7S174,569.3,174,559c0-10.3,8.4-18.7,18.7-18.7S211.4,548.7,211.4,559z M419.2,559
			c0,10.3-8.4,18.7-18.7,18.7c-10.3,0-18.7-8.4-18.7-18.7c0-10.3,8.4-18.7,18.7-18.7C410.9,540.3,419.2,548.7,419.2,559z M315.3,559
			c0,10.3-8.4,18.7-18.7,18.7c-10.3,0-18.7-8.4-18.7-18.7c0-10.3,8.4-18.7,18.7-18.7S315.3,548.7,315.3,559z M315.3,418.8
			c0,10.3-8.4,18.7-18.7,18.7c-10.3,0-18.7-8.4-18.7-18.7c0-10.3,8.4-18.7,18.7-18.7S315.3,408.5,315.3,418.8z M174,283.4
			c0-10.3,8.4-18.7,18.7-18.7s18.7,8.4,18.7,18.7c0,10.3-8.4,18.7-18.7,18.7S174,293.7,174,283.4z M107.4,559
			c0,10.3-8.4,18.7-18.7,18.7S70,569.3,70,559c0-10.3,8.4-18.7,18.7-18.7S107.4,548.7,107.4,559z M70.1,418.8
			c0-10.3,8.4-18.7,18.7-18.7s18.7,8.4,18.7,18.7c0,10.3-8.4,18.7-18.7,18.7C78.5,437.4,70.1,429.1,70.1,418.8z M-15.2,540.3
			c10.3,0,18.7,8.4,18.7,18.7s-8.4,18.7-18.7,18.7s-18.7-8.4-18.7-18.7C-33.8,548.7-25.5,540.3-15.2,540.3z"/>
	</g>
</g>
</svg>
